<?xml version="1.0" encoding="utf-8"?>
<!-- Svg Vector Icons : http://www.onlinewebfonts.com/icon -->
<!DOCTYPE svg PUBLIC "-//W3C//DTD SVG 1.1//EN" "http://www.w3.org/Graphics/SVG/1.1/DTD/svg11.dtd">
<svg version="1.1" xmlns="http://www.w3.org/2000/svg" xmlns:xlink="http://www.w3.org/1999/xlink" x="0px" y="0px" viewBox="0 0 1000 1000" enable-background="new 0 0 1000 1000" xml:space="preserve">
<metadata> Svg Vector Icons : http://www.onlinewebfonts.com/icon </metadata>
<g><g transform="translate(0.000000,511.000000) scale(0.100000,-0.100000)"><path d="M4360,4974C2386.1,4710.2,745.4,3252.3,254.8,1327C-226.5-552,435.3-2519,1953.3-3733.9c520.7-416.5,1110.8-717.4,1749.4-893.2c486-134.2,719.7-162,1316.7-159.7c580.8,0,786.8,25.5,1251.9,148.1c652.6,173.6,1321.4,516,1846.6,946.5c192.1,157.4,567,536.9,717.4,724.3c409.6,509.1,749.7,1177.9,916.4,1809.6c122.6,465.1,148.1,671.1,148.1,1251.9c2.3,597-25.5,830.7-159.7,1316.7c-407.3,1483.3-1518,2712.1-2966.7,3276.7c-314.7,122.6-782.1,240.7-1136.2,287C5287.9,5017.9,4697.8,5017.9,4360,4974z M5630.4,4603.7c1011.2-148.1,1867.4-573.9,2584.8-1291.3c733.6-735.9,1175.6-1643,1305.1-2675.1c30.1-252.2,30.1-812.2,0-1064.5c-101.8-812.3-411.9-1571.3-907.1-2228.5c-182.8-243-601.7-661.8-844.6-844.6c-1069.1-807.6-2397.4-1108.5-3707.1-837.7c-462.8,97.2-1027.4,321.7-1430.1,573.9c-587.8,363.3-1126.9,902.5-1487.9,1481C507-1253.2,310.3,8,601.9,1204.3c64.8,268.4,217.5,687.3,344.8,937.2C1615.5,3465.2,2876.6,4377,4360,4603.7C4663.1,4647.7,5320.3,4650,5630.4,4603.7z"/><path d="M4545.1,4386.2c-847-104.1-1622.2-430.4-2256.2-948.8c-215.2-175.9-571.6-548.4-731.2-763.7c-921-1240.3-1110.8-2881-492.9-4292.6c127.3-289.3,182.8-358.7,286.9-358.7c81,0,185.1,87.9,185.1,157.4c0,25.4-48.6,152.7-106.5,284.6c-229.1,518.4-330.9,944.1-349.4,1492.6c-25.4,701.2,94.9,1256.5,409.6,1895.2c208.3,418.9,409.6,698.9,740.5,1029.8c798.4,798.4,1832.8,1198.7,2962,1147.8c490.6-23.1,467.5-25.5,525.3,44c97.2,111.1,48.6,245.3-104.1,289.3C5500.8,4397.8,4762.6,4411.7,4545.1,4386.2z"/><path d="M6396.3,4066.9c-78.7-78.7-83.3-115.7-37-208.3c23.1-46.3,85.6-85.6,215.2-143.5c761.3-333.2,1407-900.2,1825.8-1603.7c497.5-840,664.1-1916.1,444.3-2874.1c-113.4-492.9-344.8-1006.6-638.7-1423.2c-199-280-627.1-708.1-907.1-907.1c-728.9-516-1571.2-763.6-2464.5-728.9c-513.7,23.1-907.1,111.1-1369.9,307.8c-129.6,55.5-254.6,101.8-275.4,101.8c-46.3,0-171.2-125-171.2-173.6c0-104.1,67.1-166.6,270.8-254.6C4360-4300.9,5551.7-4317,6616.2-3882c803,326.3,1492.6,888.6,1971.6,1603.7c962.6,1441.7,962.6,3336.9-4.6,4778.6c-432.7,645.6-985.8,1127-1687,1469.4C6530.6,4150.1,6488.9,4157.1,6396.3,4066.9z"/><path d="M2927.6,2798.7c-46.3-57.9-48.6-90.3-48.6-613.2v-553.1h-148.1c-125,0-162-9.2-215.2-55.5l-64.8-55.5V952.1c0-557.7,0-569.3,50.9-620.2c41.7-41.6,85.6-53.2,215.2-60.2l162-9.3v-1238v-1235.7l57.9-55.5c30.1-32.4,83.3-57.9,115.7-57.9h57.9v-252.2c0-377.2-23.1-361,541.5-361c573.9,0,553.1-13.9,564.6,358.7l9.3,254.6h782.2h782.1l9.3-254.6c11.6-372.6-9.3-358.7,564.6-358.7c564.6,0,541.5-16.2,541.5,361v252.2h57.9c32.4,0,85.6,25.4,115.7,57.9l57.9,55.5v1235.7v1238l162,9.3c129.6,6.9,173.6,18.5,215.2,60.2c50.9,50.9,50.9,62.5,50.9,620.2v569.3l-64.8,55.5c-53.2,46.3-90.3,55.5-215.2,55.5h-148.1v553.1c0,523-2.3,555.4-48.6,613.2l-46.3,60.2H5007.9H2973.8L2927.6,2798.7z M6766.6,2187.8v-324H5007.9H3249.2v324v324h1758.7h1758.7V2187.8z M6766.6,544.8v-948.8H5007.9H3249.2v948.8v948.8h1758.7h1758.7V544.8z M2879,949.8c0-261.5-4.6-312.4-34.7-312.4s-34.7,50.9-34.7,312.4s4.6,312.4,34.7,312.4S2879,1211.3,2879,949.8z M7206.3,949.8c0-261.5-4.6-312.4-34.7-312.4s-34.7,50.9-34.7,312.4s4.6,312.4,34.7,312.4S7206.3,1211.3,7206.3,949.8z M6766.6-843.6v-92.6h-414.2c-398,0-418.8-2.3-476.7-50.9c-81-69.4-85.6-182.8-11.6-261.5c53.2-57.9,57.9-57.9,479-57.9h423.5v-324v-324H5007.9H3249.2v324v324h421.2c400.3,0,423.5,2.3,474.4,50.9c76.4,71.7,74,208.3-6.9,270.7c-57.9,44-92.6,48.6-474.4,48.6h-414.2v92.6v92.6h1758.7h1758.7V-843.6z M3850.9-2451.9v-127.3h-185.1h-185.1v127.3v127.3h185.1h185.1V-2451.9z M6535.2-2451.9v-127.3h-185.1h-185.1v127.3v127.3h185.1h185.1V-2451.9z"/></g></g>
</svg>