<?xml version="1.0" encoding="utf-8"?>
<!-- Generator: Adobe Illustrator 24.1.1, SVG Export Plug-In . SVG Version: 6.00 Build 0)  -->
<svg version="1.1" id="Layer_1" xmlns="http://www.w3.org/2000/svg" xmlns:xlink="http://www.w3.org/1999/xlink" x="0px" y="0px"
	 viewBox="0 0 512 512" style="enable-background:new 0 0 512 512;" xml:space="preserve">
<g>
	<path d="M102.4,384v25.6c14.1,0,25.6,11.5,25.6,25.6c0,14.1-11.5,25.6-25.6,25.6c-14.1,0-25.6-11.5-25.6-25.6
		c0-14.1,11.5-25.6,25.6-25.6V384v-25.6c-42.4,0-76.8,34.4-76.8,76.8c0,42.4,34.4,76.8,76.8,76.8c42.4,0,76.8-34.4,76.8-76.8
		c0-42.4-34.4-76.8-76.8-76.8V384z"/>
	<path d="M409.6,25.6v25.6c14.1,0,25.6,11.5,25.6,25.6c0,14.1-11.5,25.6-25.6,25.6c-14.1,0-25.6-11.5-25.6-25.6
		c0-14.1,11.5-25.6,25.6-25.6V25.6V0c-42.4,0-76.8,34.4-76.8,76.8c0,42.4,34.4,76.8,76.8,76.8c42.4,0,76.8-34.4,76.8-76.8
		C486.4,34.4,452,0,409.6,0V25.6z"/>
	<path d="M256,460.8h115.2c63.6,0,115.2-51.6,115.2-115.2c0-63.6-51.6-115.2-115.2-115.2H166.4c-35.3-0.1-63.9-28.7-64-64
		c0.1-35.3,28.7-63.9,64-64H256c14.1,0,25.6-11.5,25.6-25.6c0-14.1-11.5-25.6-25.6-25.6l-89.6,0c-63.6,0-115.2,51.6-115.2,115.2
		c0,63.6,51.6,115.2,115.2,115.2l204.8,0c35.3,0.1,63.9,28.7,64,64c-0.1,35.3-28.7,63.9-64,64H256c-14.1,0-25.6,11.5-25.6,25.6
		C230.4,449.3,241.9,460.8,256,460.8L256,460.8z"/>
</g>
</svg>
